<?xml version="1.0" standalone="no"?>
<!DOCTYPE svg PUBLIC "-//W3C//DTD SVG 20010904//EN"
 "http://www.w3.org/TR/2001/REC-SVG-20010904/DTD/svg10.dtd">
<svg version="1.0" xmlns="http://www.w3.org/2000/svg"
 width="360.000000pt" height="62.000000pt" viewBox="0 0 360.000000 62.000000"
 preserveAspectRatio="xMidYMid meet">

<g transform="translate(0.000000,62.000000) scale(0.100000,-0.100000)"
fill="#000000" stroke="none">
<path d="M192 568 c-11 -24 -18 -44 -17 -46 2 -2 30 10 64 27 56 29 68 31 166
31 99 0 107 -2 130 -25 44 -43 23 -149 -43 -218 -43 -45 -61 -51 -171 -57
l-104 -5 -17 -50 c-17 -50 -17 -50 -63 -53 -26 -2 -47 1 -47 5 0 4 16 54 36
111 l37 102 126 0 c137 0 159 7 163 50 l3 25 -154 0 -154 0 -69 -154 c-37 -84
-68 -155 -68 -157 0 -2 167 -4 370 -4 204 0 370 4 370 8 0 5 -5 34 -11 65
l-12 57 -61 0 -61 0 -20 -52 c-19 -50 -23 -53 -59 -56 -21 -2 -42 0 -46 5 -4
4 9 53 30 108 l37 100 137 5 c122 4 139 7 152 25 32 44 18 50 -126 55 l-135 5
49 53 49 52 117 0 c146 0 165 -10 164 -87 l0 -48 48 3 c26 2 48 2 48 -1 0 -3
-9 -24 -20 -48 -11 -24 -20 -56 -20 -72 0 -41 31 -48 167 -40 l116 6 -27 -36
c-38 -50 -106 -81 -188 -85 -131 -8 -174 26 -165 133 l5 65 -34 -30 c-19 -16
-38 -30 -43 -30 -5 0 1 -35 14 -77 l22 -78 675 -3 c529 -2 677 1 690 10 17 14
168 356 168 381 0 16 -36 65 -42 57 -3 -3 -38 -95 -79 -205 -63 -169 -78 -202
-101 -215 -41 -23 -56 -7 -101 108 -22 56 -42 100 -45 98 -2 -3 -21 -51 -42
-108 l-37 -103 -42 -3 c-22 -2 -41 1 -41 7 0 5 28 87 62 181 61 171 94 230
128 230 24 0 32 -12 74 -120 21 -52 40 -97 42 -99 4 -4 12 14 60 147 l34 92
-1035 0 -1034 0 -19 -42z m1121 -3 c39 -25 50 -78 32 -149 -23 -89 -29 -96
-80 -96 -49 0 -53 6 -29 51 8 17 14 44 12 62 -3 28 -8 32 -43 39 -23 5 -59 4
-88 -2 -58 -12 -134 -13 -141 -2 -6 10 59 74 94 93 65 33 195 36 243 4z m365
-95 l3 -115 61 113 61 112 43 0 c24 0 44 -3 44 -8 0 -17 -203 -368 -222 -384
-25 -22 -64 -23 -72 -2 -3 9 -6 67 -6 130 l0 115 -88 -118 c-49 -65 -96 -124
-105 -131 -23 -19 -61 -11 -66 13 -2 11 9 102 25 202 l29 183 48 0 c48 0 48
-1 43 -27 -3 -16 -10 -57 -16 -93 -6 -36 -14 -74 -17 -85 -3 -11 27 25 67 80
85 118 105 137 139 133 l26 -3 3 -115z m309 78 c-12 -30 -18 -33 -60 -36 -26
-2 -47 -1 -47 1 0 2 5 18 11 36 10 29 14 31 60 31 l49 0 -13 -32z m-27 -75 c0
-5 -25 -73 -54 -153 l-54 -145 -46 -3 c-25 -2 -46 1 -46 6 0 7 63 182 99 275
9 24 16 27 56 27 25 0 45 -3 45 -7z"/>
</g>
</svg>
